<svg width="48" height="48" viewBox="0 0 48 48" fill="none" xmlns="http://www.w3.org/2000/svg">
<path d="M21.8429 2.56201C22.1406 0.000787735 25.8594 0.000787735 26.1571 2.56201C26.4004 4.65628 29.1848 5.21012 30.2111 3.3684C31.4662 1.11604 34.902 2.5392 34.1968 5.01936C33.6202 7.04734 35.9807 8.62455 37.6337 7.31577C39.6552 5.71518 42.2848 8.34481 40.6842 10.3663C39.3755 12.0193 40.9527 14.3798 42.9806 13.8032C45.4608 13.098 46.884 16.5338 44.6316 17.7889C42.7899 18.8152 43.3437 21.5996 45.438 21.8429C47.9992 22.1406 47.9992 25.8594 45.438 26.1571C43.3437 26.4004 42.7899 29.1848 44.6316 30.2111C46.884 31.4662 45.4608 34.902 42.9806 34.1968C40.9527 33.6202 39.3755 35.9807 40.6842 37.6337C42.2848 39.6552 39.6552 42.2848 37.6337 40.6842C35.9807 39.3755 33.6202 40.9527 34.1968 42.9806C34.902 45.4608 31.4662 46.884 30.2111 44.6316C29.1848 42.7899 26.4004 43.3437 26.1571 45.438C25.8594 47.9992 22.1406 47.9992 21.8429 45.438C21.5996 43.3437 18.8152 42.7899 17.7889 44.6316C16.5338 46.884 13.098 45.4608 13.8032 42.9806C14.3798 40.9527 12.0193 39.3755 10.3663 40.6842C8.34481 42.2848 5.71518 39.6552 7.31577 37.6337C8.62455 35.9807 7.04734 33.6202 5.01936 34.1968C2.5392 34.902 1.11604 31.4662 3.3684 30.2111C5.21012 29.1848 4.65628 26.4004 2.56201 26.1571C0.000789642 25.8594 0.000787735 22.1406 2.56201 21.8429C4.65627 21.5996 5.21012 18.8152 3.3684 17.7889C1.11604 16.5338 2.53919 13.098 5.01936 13.8032C7.04734 14.3798 8.62455 12.0193 7.31577 10.3663C5.71518 8.34481 8.34481 5.71518 10.3663 7.31577C12.0193 8.62455 14.3798 7.04734 13.8032 5.01936C13.098 2.53919 16.5338 1.11604 17.7889 3.3684C18.8152 5.21012 21.5996 4.65628 21.8429 2.56201Z" fill="#F48012"/>
</svg>
