<svg width="46" height="48" viewBox="0 0 46 48" fill="none" xmlns="http://www.w3.org/2000/svg">
<path d="M21.0846 2.47317C21.3234 0.170418 24.6766 0.170418 24.9154 2.47317C25.1152 4.40044 27.7158 4.85899 28.5627 3.11629C29.5747 1.03407 32.7257 2.18096 32.1625 4.4265C31.6911 6.30589 33.978 7.62623 35.3699 6.2783C37.033 4.66776 39.6017 6.8232 38.3045 8.74068C37.2187 10.3455 38.9161 12.3684 40.6851 11.5778C42.7987 10.6332 44.4753 13.5372 42.6005 14.8954C41.0313 16.0321 41.9345 18.5135 43.8672 18.3756C46.1764 18.2109 46.7587 21.5132 44.5324 22.1482C42.6691 22.6797 42.6691 25.3203 44.5324 25.8518C46.7587 26.4868 46.1764 29.7891 43.8672 29.6244C41.9345 29.4865 41.0313 31.9679 42.6005 33.1046C44.4753 34.4628 42.7987 37.3668 40.6851 36.4222C38.9161 35.6316 37.2187 37.6545 38.3045 39.2593C39.6017 41.1768 37.033 43.3322 35.3699 41.7217C33.978 40.3738 31.6911 41.6941 32.1625 43.5735C32.7257 45.819 29.5747 46.9659 28.5627 44.8837C27.7158 43.141 25.1152 43.5996 24.9154 45.5268C24.6766 47.8296 21.3234 47.8296 21.0846 45.5268C20.8848 43.5996 18.2842 43.141 17.4373 44.8837C16.4253 46.9659 13.2743 45.819 13.8375 43.5735C14.3089 41.6941 12.022 40.3738 10.6301 41.7217C8.96701 43.3322 6.39827 41.1768 7.69554 39.2593C8.7813 37.6545 7.0839 35.6316 5.31491 36.4222C3.20129 37.3668 1.52466 34.4628 3.39952 33.1046C4.96868 31.9679 4.06551 29.4865 2.13281 29.6244C-0.176414 29.7891 -0.758701 26.4868 1.4676 25.8518C3.3309 25.3203 3.3309 22.6797 1.4676 22.1482C-0.758701 21.5132 -0.176414 18.2109 2.13281 18.3756C4.06551 18.5135 4.96868 16.0321 3.39952 14.8954C1.52466 13.5372 3.20129 10.6332 5.31491 11.5778C7.0839 12.3684 8.7813 10.3455 7.69554 8.74068C6.39827 6.8232 8.96701 4.66776 10.6301 6.2783C12.022 7.62623 14.3089 6.30589 13.8375 4.42649C13.2743 2.18096 16.4253 1.03408 17.4373 3.11629C18.2842 4.859 20.8848 4.40045 21.0846 2.47317Z" fill="#F48012"/>
</svg>
