<svg width="46" height="48" viewBox="0 0 46 48" fill="none" xmlns="http://www.w3.org/2000/svg">
<path d="M19.5228 3.22524C20.2233 -0.647738 25.7767 -0.647738 26.4772 3.22524C26.9786 5.99715 30.3631 7.09683 32.3979 5.149C35.2411 2.42743 39.734 5.69168 38.0242 9.23673C36.8006 11.7739 38.8923 14.653 41.6834 14.2732C45.5833 13.7426 47.2995 19.0243 43.8325 20.8873C41.3512 22.2207 41.3512 25.7793 43.8325 27.1127C47.2995 28.9757 45.5833 34.2574 41.6834 33.7268C38.8923 33.347 36.8006 36.2261 38.0242 38.7633C39.734 42.3083 35.2411 45.5726 32.3979 42.851C30.3631 40.9032 26.9786 42.0028 26.4772 44.7748C25.7767 48.6477 20.2233 48.6477 19.5228 44.7748C19.0214 42.0028 15.6369 40.9032 13.6021 42.851C10.7589 45.5726 6.26599 42.3083 7.97576 38.7633C9.19945 36.2261 7.10773 33.347 4.31656 33.7268C0.416666 34.2574 -1.29945 28.9757 2.1675 27.1127C4.64882 25.7793 4.64882 22.2207 2.1675 20.8873C-1.29945 19.0243 0.416666 13.7426 4.31656 14.2732C7.10773 14.653 9.19945 11.7739 7.97576 9.23674C6.26599 5.69168 10.7589 2.42743 13.6021 5.149C15.6369 7.09683 19.0214 5.99715 19.5228 3.22524Z" fill="#806044"/>
</svg>
