<svg width="46" height="48" viewBox="0 0 46 48" fill="none" xmlns="http://www.w3.org/2000/svg">
<path d="M20.5311 2.69176C20.9122 -0.193939 25.0878 -0.193938 25.4689 2.69177C25.7713 4.9805 28.7554 5.66161 30.0209 3.7307C31.6163 1.29616 35.3784 3.10787 34.4697 5.87318C33.7491 8.06643 36.1422 9.97487 38.1201 8.78423C40.6139 7.28303 43.2173 10.5476 41.1988 12.6448C39.5979 14.3082 40.926 17.066 43.2246 16.8514C46.1228 16.5809 47.0519 20.6518 44.3234 21.6655C42.1593 22.4695 42.1593 25.5305 44.3234 26.3345C47.0519 27.3482 46.1228 31.4191 43.2246 31.1486C40.926 30.934 39.5979 33.6918 41.1988 35.3552C43.2173 37.4524 40.6139 40.717 38.1201 39.2158C36.1422 38.0251 33.7491 39.9336 34.4697 42.1268C35.3784 44.8921 31.6163 46.7038 30.0209 44.2693C28.7554 42.3384 25.7713 43.0195 25.4689 45.3082C25.0878 48.1939 20.9122 48.1939 20.5311 45.3082C20.2287 43.0195 17.2446 42.3384 15.9791 44.2693C14.3837 46.7038 10.6216 44.8921 11.5303 42.1268C12.2509 39.9336 9.85781 38.0251 7.87991 39.2158C5.38613 40.717 2.78271 37.4524 4.80118 35.3552C6.4021 33.6918 5.07402 30.934 2.7754 31.1486C-0.12277 31.4191 -1.05192 27.3482 1.67661 26.3345C3.84069 25.5305 3.84069 22.4695 1.67661 21.6655C-1.05192 20.6518 -0.12277 16.5809 2.7754 16.8514C5.07402 17.066 6.4021 14.3082 4.80118 12.6448C2.7827 10.5476 5.38613 7.28303 7.87992 8.78423C9.85781 9.97487 12.2509 8.06643 11.5303 5.87318C10.6216 3.10787 14.3837 1.29616 15.9791 3.7307C17.2446 5.66161 20.2287 4.9805 20.5311 2.69176Z" fill="#F48012"/>
</svg>
