<svg width="76" height="74" viewBox="0 0 76 74" fill="none" xmlns="http://www.w3.org/2000/svg">
<path d="M61.9889 61.4035C64.2772 65.3693 59.1806 69.4419 55.8174 66.3351C53.1531 63.8739 48.8521 65.9504 49.1222 69.5674C49.4633 74.1333 43.1044 75.5912 41.4222 71.3329C40.0896 67.9594 35.3136 67.9641 33.9876 71.3402C32.3138 75.6019 25.952 74.1564 26.2841 69.5899C26.5471 65.9723 22.242 63.9043 19.5826 66.3707C16.2255 69.4841 11.1209 65.4215 13.4014 61.4513C15.208 58.3061 12.2265 54.575 8.76028 55.6433C4.38477 56.9917 1.54838 51.1167 5.32567 48.5291C8.318 46.4793 7.25065 41.824 3.66419 41.2826C-0.863095 40.599 -0.869499 34.0751 3.65643 33.3827C7.24182 32.8342 8.3 28.1769 5.30365 26.1329C1.52129 23.5527 4.34611 17.6721 8.72426 19.012C12.1926 20.0734 15.1667 16.3365 13.3539 13.1949C11.0656 9.22911 16.1622 5.15652 19.5254 8.26331C22.1898 10.7245 26.4908 8.648 26.2206 5.03097C25.8796 0.465104 32.2385 -0.992853 33.9207 3.26552C35.2533 6.63896 40.0293 6.63427 41.3553 3.25821C43.0291 -1.00346 49.3908 0.441991 49.0588 5.00852C48.7957 8.62608 53.1008 10.6941 55.7603 8.22769C59.1174 5.11429 64.222 9.17685 61.9415 13.1471C60.1349 16.2923 63.1163 20.0234 66.5826 18.9551C70.9581 17.6067 73.7945 23.4817 70.0172 26.0693C67.0248 28.1191 68.0922 32.7744 71.6787 33.3158C76.2059 33.9994 76.2124 40.5233 71.6864 41.2157C68.101 41.7642 67.0428 46.4215 70.0392 48.4655C73.8216 51.0457 70.9967 56.9263 66.6186 55.5864C63.1503 54.525 60.1761 58.2619 61.9889 61.4035Z" fill="#806044"/>
</svg>
