<svg width="62" height="62" viewBox="0 0 62 62" fill="none" xmlns="http://www.w3.org/2000/svg">
<path d="M44.3 56.4592C45.0765 59.0814 41.4258 60.6046 40.1083 58.2081C38.9856 56.1659 35.8847 56.9189 35.8235 59.2485C35.7517 61.9824 31.809 62.3029 31.2966 59.6165C30.8599 57.3274 27.678 57.0852 26.9 59.2819C25.9869 61.8598 22.1381 60.9463 22.4809 58.2331C22.773 55.921 19.8216 54.7074 18.4028 56.5562C16.7378 58.7258 13.3597 56.6676 14.5242 54.1931C15.5164 52.0845 13.0846 50.0183 11.1639 51.3381C8.90995 52.887 6.33318 49.8857 8.20529 47.8921C9.80058 46.1933 8.12622 43.4768 5.89172 44.1385C3.26946 44.915 1.74625 41.2644 4.14279 39.9469C6.18497 38.8242 5.43202 35.7232 3.10238 35.662C0.368508 35.5903 0.0479653 31.6476 2.73434 31.1351C5.0235 30.6985 5.26565 27.5166 3.06894 26.7385C0.491053 25.8254 1.40455 21.9767 4.11781 22.3194C6.42987 22.6115 7.64342 19.6602 5.79466 18.2414C3.6251 16.5764 5.68322 13.1983 8.15776 14.3627C10.2664 15.355 12.3326 12.9231 11.0127 11.0024C9.46387 8.74849 12.4652 6.17172 14.4587 8.04384C16.1576 9.63913 18.8741 7.96477 18.2124 5.73026C17.4358 3.10801 21.0865 1.5848 22.404 3.98133C23.5267 6.02351 26.6277 5.27056 26.6888 2.94093C26.7606 0.207052 30.7033 -0.113491 31.2157 2.57288C31.6524 4.86205 34.8343 5.10419 35.6124 2.90748C36.5254 0.329596 40.3742 1.2431 40.0314 3.95635C39.7394 6.26841 42.6907 7.48196 44.1095 5.6332C45.7745 3.46364 49.1526 5.52177 47.9882 7.9963C46.9959 10.1049 49.4278 12.1711 51.3484 10.8513C53.6024 9.30241 56.1791 12.3037 54.307 14.2973C52.7117 15.9961 54.3861 18.7126 56.6206 18.0509C59.2429 17.2744 60.7661 20.925 58.3695 22.2425C56.3274 23.3652 57.0803 26.4662 59.4099 26.5274C62.1438 26.5991 62.4644 30.5418 59.778 31.0543C57.4888 31.491 57.2467 34.6728 59.4434 35.4509C62.0213 36.364 61.1078 40.2127 58.3945 39.87C56.0825 39.5779 54.8689 42.5292 56.7177 43.948C58.8872 45.613 56.8291 48.9911 54.3546 47.8267C52.2459 46.8344 50.1798 49.2663 51.4996 51.187C53.0485 53.4409 50.0472 56.0177 48.0536 54.1456C46.3548 52.5503 43.6382 54.2246 44.3 56.4592Z" fill="#496141"/>
</svg>
