<svg width="69" height="69" viewBox="0 0 69 69" fill="none" xmlns="http://www.w3.org/2000/svg">
<path d="M31.367 3.41805C31.8561 -0.237617 37.1439 -0.237619 37.633 3.41804C38.0326 6.40484 41.9879 7.1916 43.5001 4.58508C45.3509 1.39484 50.2362 3.4184 49.289 6.98295C48.5152 9.89531 51.8684 12.1358 54.2629 10.3064C57.1937 8.06727 60.9327 11.8063 58.6936 14.7371C56.8642 17.1316 59.1047 20.4848 62.0171 19.711C65.5816 18.7638 67.6052 23.6491 64.4149 25.4999C61.8084 27.0121 62.5952 30.9674 65.582 31.367C69.2376 31.8561 69.2376 37.1439 65.582 37.633C62.5952 38.0326 61.8084 41.9879 64.4149 43.5001C67.6052 45.3509 65.5816 50.2362 62.0171 49.289C59.1047 48.5152 56.8642 51.8684 58.6936 54.2629C60.9327 57.1937 57.1937 60.9327 54.2629 58.6936C51.8684 56.8642 48.5152 59.1047 49.289 62.0171C50.2362 65.5816 45.3509 67.6052 43.5001 64.4149C41.9879 61.8084 38.0326 62.5952 37.633 65.582C37.1439 69.2376 31.8561 69.2376 31.367 65.582C30.9674 62.5952 27.0121 61.8084 25.4999 64.4149C23.6491 67.6052 18.7638 65.5816 19.711 62.0171C20.4848 59.1047 17.1316 56.8642 14.7371 58.6936C11.8063 60.9327 8.06727 57.1937 10.3064 54.2629C12.1358 51.8684 9.89531 48.5152 6.98295 49.289C3.4184 50.2362 1.39484 45.3509 4.58508 43.5001C7.1916 41.9879 6.40484 38.0326 3.41805 37.633C-0.237617 37.1439 -0.237619 31.8561 3.41804 31.367C6.40484 30.9674 7.1916 27.0121 4.58508 25.4999C1.39484 23.6491 3.4184 18.7638 6.98295 19.711C9.89531 20.4848 12.1358 17.1316 10.3064 14.7371C8.06727 11.8063 11.8063 8.06727 14.7371 10.3064C17.1316 12.1358 20.4848 9.89531 19.711 6.98295C18.7638 3.4184 23.6491 1.39484 25.4999 4.58508C27.0121 7.1916 30.9674 6.40484 31.367 3.41805Z" fill="#F48012"/>
</svg>
