<svg width="74" height="73" viewBox="0 0 74 73" fill="none" xmlns="http://www.w3.org/2000/svg">
<path d="M69.7074 47.1826C72.2055 48.4533 70.6904 52.2397 68.0052 51.4363C65.6536 50.7327 63.9828 53.709 65.8081 55.3503C67.8922 57.2242 65.4487 60.4894 63.063 59.0185C60.9736 57.7302 58.5894 60.1726 59.9277 62.2304C61.4558 64.5799 58.2505 67.1014 56.3268 65.0631C54.642 63.278 51.7069 65.0201 52.467 67.3541C53.3349 70.0191 49.5862 71.6251 48.2556 69.1583C47.0902 66.998 43.8042 67.9211 43.9344 70.3723C44.083 73.171 40.0463 73.7521 39.3995 71.025C38.833 68.6367 35.4201 68.6778 34.9113 71.0792C34.3305 73.8211 30.281 73.3376 30.362 70.536C30.433 68.0824 27.1257 67.2388 26.0128 69.4267C24.7421 71.9248 20.9558 70.4097 21.7591 67.7246C22.4627 65.3729 19.4864 63.7021 17.8452 65.5274C15.9712 67.6115 12.706 65.168 14.177 62.7824C15.4652 60.6929 13.0228 58.3087 10.965 59.647C8.61554 61.1751 6.09402 57.9698 8.13229 56.0461C9.91746 54.3613 8.17533 51.4262 5.84132 52.1863C3.17636 53.0542 1.57036 49.3055 4.03707 47.9749C6.19747 46.8096 5.27436 43.5236 2.82315 43.6537C0.0243758 43.8023 -0.556669 39.7657 2.17038 39.1188C4.55877 38.5523 4.5176 35.1394 2.11623 34.6307C-0.625632 34.0498 -0.142134 30.0004 2.6594 30.0814C5.11304 30.1523 5.9566 26.8451 3.76872 25.7321C1.27063 24.4614 2.78572 20.6751 5.47083 21.4784C7.8225 22.182 9.49331 19.2058 7.66801 17.5645C5.58392 15.6905 8.02738 12.4254 10.4131 13.8963C12.5025 15.1846 14.8867 12.7421 13.5484 10.6844C12.0203 8.33488 15.2256 5.81336 17.1493 7.85163C18.8341 9.63679 21.7692 7.89467 21.0091 5.56066C20.1412 2.89571 23.8899 1.2897 25.2205 3.75641C26.3859 5.91681 29.6718 4.9937 29.5417 2.54249C29.3931 -0.256284 33.4297 -0.837332 34.0766 1.88971C34.6431 4.27812 38.056 4.23694 38.5647 1.83557C39.1456 -0.906289 43.1951 -0.422794 43.114 2.37875C43.0431 4.83239 46.3504 5.67594 47.4633 3.48806C48.734 0.989966 52.5203 2.50506 51.717 5.19017C51.0134 7.54185 53.9897 9.21265 55.6309 7.38736C57.5049 5.30327 60.7701 7.74671 59.2991 10.1324C58.0109 12.2218 60.4533 14.606 62.511 13.2677C64.8606 11.7397 67.3821 14.945 65.3438 16.8687C63.5586 18.5535 65.3008 21.4886 67.6348 20.7284C70.2997 19.8605 71.9057 23.6092 69.439 24.9398C67.2786 26.1052 68.2017 29.3912 70.6529 29.2611C73.4517 29.1125 74.0328 33.1491 71.3057 33.7959C68.9173 34.3624 68.9585 37.7754 71.3599 38.2841C74.1017 38.8649 73.6182 42.9144 70.8167 42.8334C68.363 42.7624 67.5195 46.0697 69.7074 47.1826Z" fill="#496141"/>
</svg>
