<svg width="58" height="56" viewBox="0 0 58 56" fill="none" xmlns="http://www.w3.org/2000/svg">
<path d="M24.5802 53.2175C22.2218 57.2608 16.0154 55.1814 16.5689 50.5334C16.9637 47.2175 13.6038 44.7292 10.5472 46.0739C6.26259 47.9587 2.46378 42.6285 5.64357 39.1935C7.91205 36.743 6.6564 32.755 3.39315 32.0462C-1.18103 31.0526 -1.12133 24.5075 3.47023 23.5976C6.74586 22.9484 8.07407 18.9841 5.85068 16.4925C2.73408 13.0001 6.62951 7.74008 10.879 9.70276C13.9106 11.103 17.3154 8.67641 16.9811 5.35384C16.5125 0.696509 22.7557 -1.26925 25.04 2.81639C26.6696 5.7311 30.8504 5.76924 32.5329 2.88474C34.8914 -1.15853 41.0977 0.920798 40.5442 5.56881C40.1494 8.88473 43.5093 11.373 46.5659 10.0283C50.8505 8.14351 54.6493 13.4737 51.4695 16.9087C49.2011 19.3593 50.4567 23.3472 53.72 24.056C58.2941 25.0496 58.2344 31.5947 53.6429 32.5046C50.3672 33.1538 49.039 37.1182 51.2624 39.6097C54.379 43.1021 50.4836 48.3621 46.2341 46.3995C43.2025 44.9993 39.7978 47.4258 40.132 50.7484C40.6006 55.4057 34.3574 57.3715 32.0731 53.2858C30.4435 50.3711 26.2627 50.333 24.5802 53.2175Z" fill="#496141"/>
</svg>
