<svg width="82" height="79" viewBox="0 0 82 79" fill="none" xmlns="http://www.w3.org/2000/svg">
<path d="M35.3318 75.4124C31.9602 81.1926 23.0877 78.22 23.8789 71.5752C24.4434 66.8348 19.6401 63.2777 15.2703 65.1999C9.14507 67.8945 3.71433 60.2745 8.26013 55.3638C11.5031 51.8605 9.70805 46.1594 5.04294 45.1461C-1.49628 43.7257 -1.41092 34.3688 5.15313 33.068C9.83595 32.14 11.7347 26.4725 8.5562 22.9107C4.10075 17.9179 9.66961 10.3982 15.7447 13.204C20.0786 15.2058 24.946 11.7368 24.4681 6.98687C23.7983 0.32877 32.7235 -2.48146 35.9891 3.35933C38.3188 7.52619 44.2956 7.58072 46.7009 3.45706C50.0725 -2.32318 58.945 0.649414 58.1538 7.29418C57.5894 12.0346 62.3926 15.5918 66.7624 13.6695C72.8876 10.975 78.3184 18.595 73.7726 23.5056C70.5296 27.0089 72.3247 32.71 76.9898 33.7234C83.529 35.1438 83.4436 44.5006 76.8796 45.8014C72.1968 46.7295 70.298 52.3969 73.4765 55.9588C77.932 60.9516 72.3631 68.4712 66.2881 65.6654C61.9541 63.6637 57.0867 67.1326 57.5646 71.8826C58.2344 78.5407 49.3092 81.3509 46.0436 75.5101C43.7139 71.3433 37.7371 71.2887 35.3318 75.4124Z" fill="#F48012"/>
</svg>
