<svg width="90" height="91" viewBox="0 0 90 91" fill="none" xmlns="http://www.w3.org/2000/svg">
<path d="M41.0353 4.35154C41.6542 -0.274572 48.3458 -0.27458 48.9647 4.35154L49.1272 5.56648C49.6329 9.34617 54.6382 10.3418 56.5518 7.04333L57.1669 5.98304C59.5091 1.94592 65.6912 4.50665 64.4927 9.01747L64.1779 10.2022C63.1987 13.8876 67.442 16.7229 70.4722 14.4079L71.4462 13.6637C75.155 10.8302 79.8866 15.5618 77.0531 19.2706L76.3089 20.2446C73.9939 23.2748 76.8291 27.5181 80.5146 26.5389L81.6993 26.2241C86.2101 25.0256 88.7709 31.2077 84.7337 33.5499L83.6735 34.165C80.375 36.0786 81.3706 41.0839 85.1503 41.5896L86.3653 41.7521C90.9914 42.371 90.9914 49.0626 86.3653 49.6815L85.1503 49.844C81.3706 50.3497 80.375 55.355 83.6735 57.2686L84.7337 57.8837C88.7709 60.2259 86.2101 66.408 81.6993 65.2095L80.5146 64.8947C76.8291 63.9155 73.9939 68.1588 76.3089 71.189L77.0531 72.163C79.8866 75.8718 75.155 80.6034 71.4462 77.7699L70.4722 77.0257C67.442 74.7107 63.1987 77.5459 64.1779 81.2314L64.4927 82.4161C65.6912 86.9269 59.5091 89.4877 57.1669 85.4506L56.5518 84.3903C54.6382 81.0918 49.6329 82.0874 49.1272 85.8671L48.9647 87.0821C48.3458 91.7082 41.6542 91.7082 41.0353 87.0821L40.8728 85.8671C40.3671 82.0874 35.3618 81.0918 33.4482 84.3903L32.8331 85.4505C30.491 89.4877 24.3088 86.9269 25.5073 82.4161L25.8221 81.2314C26.8013 77.5459 22.558 74.7107 19.5278 77.0257L18.5538 77.7699C14.845 80.6034 10.1134 75.8718 12.9469 72.163L13.6911 71.189C16.0061 68.1588 13.1709 63.9155 9.48537 64.8947L8.30068 65.2095C3.78986 66.408 1.22911 60.2259 5.26624 57.8837L6.32653 57.2686C9.625 55.355 8.62938 50.3497 4.84969 49.844L3.63475 49.6815C-0.991369 49.0626 -0.991377 42.371 3.63474 41.7521L4.84969 41.5896C8.62938 41.0839 9.625 36.0786 6.32653 34.165L5.26626 33.5499C1.22913 31.2077 3.78987 25.0256 8.30068 26.2241L9.48537 26.5389C13.1709 27.5181 16.0061 23.2748 13.6911 20.2446L12.9469 19.2706C10.1134 15.5618 14.845 10.8301 18.5538 13.6637L19.5278 14.4079C22.558 16.7229 26.8013 13.8877 25.8221 10.2022L25.5073 9.01749C24.3088 4.50667 30.4909 1.94592 32.8331 5.98305L33.4482 7.04333C35.3618 10.3418 40.3671 9.34618 40.8728 5.56649L41.0353 4.35154Z" fill="#F48012"/>
</svg>
